<mxfile host="app.diagrams.net" modified="2022-08-09T01:14:54.640Z" agent="5.0 (Windows NT 10.0; Win64; x64) AppleWebKit/537.36 (KHTML, like Gecko) Chrome/103.0.0.0 Safari/537.36" etag="Am2rdF9qW7G0Ag7EHz3h" version="20.2.3" type="github">
  <diagram id="r5mIExqQhruA3w9a25Ks" name="Page-1">
    <mxGraphModel dx="1422" dy="762" grid="1" gridSize="10" guides="1" tooltips="1" connect="1" arrows="1" fold="1" page="1" pageScale="1" pageWidth="827" pageHeight="1169" math="0" shadow="0">
      <root>
        <mxCell id="0" />
        <mxCell id="1" parent="0" />
        <mxCell id="6YJJyLP3BQe_TjqYYZrS-2" style="edgeStyle=orthogonalEdgeStyle;rounded=0;orthogonalLoop=1;jettySize=auto;html=1;exitX=0.5;exitY=1;exitDx=0;exitDy=0;entryX=0.5;entryY=0;entryDx=0;entryDy=0;" edge="1" parent="1" source="a4Z7WdKTb3kv_-mjPA5u-1" target="6YJJyLP3BQe_TjqYYZrS-1">
          <mxGeometry relative="1" as="geometry" />
        </mxCell>
        <mxCell id="a4Z7WdKTb3kv_-mjPA5u-1" value="打开应用" style="rounded=1;whiteSpace=wrap;html=1;" parent="1" vertex="1">
          <mxGeometry x="320" y="40" width="120" height="40" as="geometry" />
        </mxCell>
        <mxCell id="a4Z7WdKTb3kv_-mjPA5u-9" style="edgeStyle=orthogonalEdgeStyle;rounded=0;orthogonalLoop=1;jettySize=auto;html=1;exitX=0.5;exitY=1;exitDx=0;exitDy=0;entryX=0.5;entryY=0;entryDx=0;entryDy=0;" parent="1" source="a4Z7WdKTb3kv_-mjPA5u-2" target="a4Z7WdKTb3kv_-mjPA5u-5" edge="1">
          <mxGeometry relative="1" as="geometry" />
        </mxCell>
        <mxCell id="a4Z7WdKTb3kv_-mjPA5u-10" value="是" style="edgeLabel;html=1;align=center;verticalAlign=middle;resizable=0;points=[];" parent="a4Z7WdKTb3kv_-mjPA5u-9" vertex="1" connectable="0">
          <mxGeometry x="-0.35" y="1" relative="1" as="geometry">
            <mxPoint x="-11" y="15" as="offset" />
          </mxGeometry>
        </mxCell>
        <mxCell id="a4Z7WdKTb3kv_-mjPA5u-13" style="edgeStyle=orthogonalEdgeStyle;rounded=0;orthogonalLoop=1;jettySize=auto;html=1;exitX=1;exitY=0.5;exitDx=0;exitDy=0;entryX=0;entryY=0.5;entryDx=0;entryDy=0;" parent="1" source="a4Z7WdKTb3kv_-mjPA5u-2" target="a4Z7WdKTb3kv_-mjPA5u-7" edge="1">
          <mxGeometry relative="1" as="geometry">
            <Array as="points" />
          </mxGeometry>
        </mxCell>
        <mxCell id="a4Z7WdKTb3kv_-mjPA5u-15" value="否" style="edgeLabel;html=1;align=center;verticalAlign=middle;resizable=0;points=[];" parent="a4Z7WdKTb3kv_-mjPA5u-13" vertex="1" connectable="0">
          <mxGeometry x="-0.1917" y="-3" relative="1" as="geometry">
            <mxPoint x="13" y="-13" as="offset" />
          </mxGeometry>
        </mxCell>
        <mxCell id="a4Z7WdKTb3kv_-mjPA5u-2" value="起播成功&lt;br&gt;与否" style="rhombus;whiteSpace=wrap;html=1;" parent="1" vertex="1">
          <mxGeometry x="340" y="400" width="80" height="80" as="geometry" />
        </mxCell>
        <mxCell id="a4Z7WdKTb3kv_-mjPA5u-28" style="edgeStyle=orthogonalEdgeStyle;rounded=0;orthogonalLoop=1;jettySize=auto;html=1;exitX=0.5;exitY=1;exitDx=0;exitDy=0;entryX=0.5;entryY=0;entryDx=0;entryDy=0;" parent="1" source="a4Z7WdKTb3kv_-mjPA5u-3" target="a4Z7WdKTb3kv_-mjPA5u-2" edge="1">
          <mxGeometry relative="1" as="geometry" />
        </mxCell>
        <mxCell id="a4Z7WdKTb3kv_-mjPA5u-3" value="MSE 播放" style="rounded=1;whiteSpace=wrap;html=1;" parent="1" vertex="1">
          <mxGeometry x="320" y="320" width="120" height="40" as="geometry" />
        </mxCell>
        <mxCell id="a4Z7WdKTb3kv_-mjPA5u-24" style="edgeStyle=orthogonalEdgeStyle;rounded=0;orthogonalLoop=1;jettySize=auto;html=1;exitX=0.5;exitY=1;exitDx=0;exitDy=0;entryX=1;entryY=0.5;entryDx=0;entryDy=0;" parent="1" source="a4Z7WdKTb3kv_-mjPA5u-4" target="a4Z7WdKTb3kv_-mjPA5u-5" edge="1">
          <mxGeometry relative="1" as="geometry" />
        </mxCell>
        <mxCell id="a4Z7WdKTb3kv_-mjPA5u-4" value="Native 播放" style="rounded=1;whiteSpace=wrap;html=1;" parent="1" vertex="1">
          <mxGeometry x="500" y="640" width="120" height="40" as="geometry" />
        </mxCell>
        <mxCell id="a4Z7WdKTb3kv_-mjPA5u-5" value="播放结束" style="rounded=1;whiteSpace=wrap;html=1;" parent="1" vertex="1">
          <mxGeometry x="320" y="720" width="120" height="40" as="geometry" />
        </mxCell>
        <mxCell id="a4Z7WdKTb3kv_-mjPA5u-27" style="edgeStyle=orthogonalEdgeStyle;rounded=0;orthogonalLoop=1;jettySize=auto;html=1;exitX=0.5;exitY=1;exitDx=0;exitDy=0;entryX=0.5;entryY=0;entryDx=0;entryDy=0;" parent="1" source="a4Z7WdKTb3kv_-mjPA5u-6" target="a4Z7WdKTb3kv_-mjPA5u-3" edge="1">
          <mxGeometry relative="1" as="geometry" />
        </mxCell>
        <mxCell id="a4Z7WdKTb3kv_-mjPA5u-6" value="开始播放" style="rounded=1;whiteSpace=wrap;html=1;" parent="1" vertex="1">
          <mxGeometry x="320" y="240" width="120" height="40" as="geometry" />
        </mxCell>
        <mxCell id="a4Z7WdKTb3kv_-mjPA5u-18" style="edgeStyle=orthogonalEdgeStyle;rounded=0;orthogonalLoop=1;jettySize=auto;html=1;exitX=0.5;exitY=1;exitDx=0;exitDy=0;entryX=0.5;entryY=0;entryDx=0;entryDy=0;" parent="1" source="a4Z7WdKTb3kv_-mjPA5u-7" target="a4Z7WdKTb3kv_-mjPA5u-17" edge="1">
          <mxGeometry relative="1" as="geometry" />
        </mxCell>
        <mxCell id="a4Z7WdKTb3kv_-mjPA5u-19" style="edgeStyle=orthogonalEdgeStyle;rounded=0;orthogonalLoop=1;jettySize=auto;html=1;exitX=0.5;exitY=1;exitDx=0;exitDy=0;entryX=0.5;entryY=0;entryDx=0;entryDy=0;" parent="1" source="a4Z7WdKTb3kv_-mjPA5u-7" target="a4Z7WdKTb3kv_-mjPA5u-16" edge="1">
          <mxGeometry relative="1" as="geometry" />
        </mxCell>
        <mxCell id="a4Z7WdKTb3kv_-mjPA5u-7" value="判断&lt;br&gt;错误类型" style="rhombus;whiteSpace=wrap;html=1;" parent="1" vertex="1">
          <mxGeometry x="520" y="400" width="80" height="80" as="geometry" />
        </mxCell>
        <mxCell id="a4Z7WdKTb3kv_-mjPA5u-21" style="edgeStyle=orthogonalEdgeStyle;rounded=0;orthogonalLoop=1;jettySize=auto;html=1;exitX=0.5;exitY=1;exitDx=0;exitDy=0;entryX=0.5;entryY=0;entryDx=0;entryDy=0;" parent="1" source="a4Z7WdKTb3kv_-mjPA5u-16" target="a4Z7WdKTb3kv_-mjPA5u-5" edge="1">
          <mxGeometry relative="1" as="geometry" />
        </mxCell>
        <mxCell id="a4Z7WdKTb3kv_-mjPA5u-16" value="网络错误" style="rounded=1;whiteSpace=wrap;html=1;" parent="1" vertex="1">
          <mxGeometry x="440" y="520" width="80" height="40" as="geometry" />
        </mxCell>
        <mxCell id="a4Z7WdKTb3kv_-mjPA5u-20" style="edgeStyle=orthogonalEdgeStyle;rounded=0;orthogonalLoop=1;jettySize=auto;html=1;exitX=0.5;exitY=1;exitDx=0;exitDy=0;entryX=0.5;entryY=0;entryDx=0;entryDy=0;" parent="1" source="a4Z7WdKTb3kv_-mjPA5u-17" target="a4Z7WdKTb3kv_-mjPA5u-4" edge="1">
          <mxGeometry relative="1" as="geometry" />
        </mxCell>
        <mxCell id="a4Z7WdKTb3kv_-mjPA5u-17" value="媒资错误" style="rounded=1;whiteSpace=wrap;html=1;" parent="1" vertex="1">
          <mxGeometry x="600" y="520" width="80" height="40" as="geometry" />
        </mxCell>
        <mxCell id="6YJJyLP3BQe_TjqYYZrS-3" style="edgeStyle=orthogonalEdgeStyle;rounded=0;orthogonalLoop=1;jettySize=auto;html=1;exitX=0.5;exitY=1;exitDx=0;exitDy=0;entryX=0.5;entryY=0;entryDx=0;entryDy=0;" edge="1" parent="1" source="6YJJyLP3BQe_TjqYYZrS-1" target="a4Z7WdKTb3kv_-mjPA5u-6">
          <mxGeometry relative="1" as="geometry" />
        </mxCell>
        <mxCell id="6YJJyLP3BQe_TjqYYZrS-1" value="符合白名单&lt;br&gt;&amp;amp;&amp;amp;&lt;br&gt;不符合黑名单" style="rhombus;whiteSpace=wrap;html=1;" vertex="1" parent="1">
          <mxGeometry x="320" y="120" width="120" height="80" as="geometry" />
        </mxCell>
      </root>
    </mxGraphModel>
  </diagram>
</mxfile>
